<svg width="161" height="50" viewBox="0 0 161 50" fill="none" xmlns="http://www.w3.org/2000/svg">
<path d="M56.4336 49.5069C53.2701 49.5069 50.4102 48.7832 47.8537 47.3358C45.3429 45.9328 43.2536 43.8935 41.8001 41.4268C40.3191 38.9357 39.5383 36.1219 39.4575 32.9853V3.86223C39.4575 3.30034 39.6297 2.85804 39.974 2.53533C40.3293 2.21064 40.7993 2.03768 41.2824 2.0539C41.8503 2.0539 42.2966 2.21438 42.6214 2.53533C42.9462 2.85628 43.1081 3.29858 43.1072 3.86223V22.6748C44.4054 20.5856 46.2205 18.9175 48.5525 17.6706C50.8845 16.4238 53.5111 15.8008 56.4322 15.8016C59.6773 15.8016 62.5878 16.535 65.1638 18.0017C67.6976 19.4283 69.7994 21.5015 71.2507 24.0057C72.7308 26.5381 73.4708 29.4122 73.4708 32.6279C73.4708 35.8436 72.7308 38.7277 71.2507 41.2804C69.8068 43.7962 67.7043 45.8792 65.1652 47.3094C62.5901 48.7753 59.6795 49.5078 56.4336 49.5069ZM56.4336 46.1303C58.9892 46.1303 61.271 45.5372 63.2791 44.351C65.269 43.1838 66.9159 41.5209 68.0562 39.5275C69.231 37.4989 69.8189 35.1977 69.8198 32.6239C69.8207 30.0501 69.2328 27.7586 68.0562 25.7494C66.9084 23.7695 65.2626 22.1182 63.2791 20.9562C61.2701 19.77 58.9883 19.1769 56.4336 19.1769C53.9179 19.1769 51.6463 19.77 49.6187 20.9562C47.6242 22.1055 45.9741 23.7598 44.8376 25.7494C43.684 27.7613 43.1072 30.0528 43.1072 32.6239C43.1072 35.1951 43.684 37.4962 44.8376 39.5275C45.9651 41.5299 47.6144 43.1957 49.6133 44.351C51.6454 45.5372 53.9188 46.1303 56.4336 46.1303Z" fill="#6561A9"/>
<path d="M89.2942 49.144C87.8238 49.1663 86.3847 48.7226 85.1866 47.8778C83.9896 47.0336 83.0578 45.8681 82.3914 44.3812C81.725 42.8942 81.3905 41.1659 81.3878 39.1962V3.86207C81.3878 3.30018 81.5604 2.85789 81.9056 2.53518C82.2603 2.21031 82.73 2.0373 83.2127 2.05375C83.7806 2.05375 84.2269 2.21422 84.5517 2.53518C84.8765 2.85613 85.0375 3.29843 85.0349 3.86207V39.1962C85.0349 41.0428 85.4302 42.5601 86.2208 43.748C87.0114 44.936 88.0359 45.5291 89.2942 45.5274H90.8156C91.0228 45.5218 91.2287 45.5621 91.4182 45.6454C91.6077 45.7287 91.776 45.8528 91.911 46.0088C92.1932 46.3319 92.3369 46.7738 92.3369 47.3357C92.3528 47.8145 92.1778 48.2803 91.8498 48.6322C91.525 48.9743 91.0787 49.1449 90.5108 49.144H89.2942Z" fill="#6561A9"/>
<path d="M112.414 49.5067C109.167 49.5067 106.256 48.7729 103.682 47.3053C101.143 45.8754 99.0402 43.7924 97.5967 41.2762C96.1166 38.7262 95.3765 35.8623 95.3765 32.6844C95.3765 29.4687 96.1166 26.5846 97.5967 24.0319C99.0405 21.5156 101.143 19.4322 103.682 18.0015C106.256 16.5348 109.166 15.8015 112.414 15.8015C115.662 15.8015 118.562 16.5348 121.115 18.0015C123.641 19.4391 125.731 21.5215 127.168 24.0319C128.649 26.5819 129.39 29.4661 129.39 32.6844C129.39 35.8587 128.649 38.7227 127.168 41.2762C125.731 43.7865 123.641 45.8686 121.115 47.3053C118.559 48.7738 115.659 49.5076 112.414 49.5067ZM112.414 46.1301C114.969 46.1301 117.251 45.537 119.259 44.3508C121.245 43.1884 122.882 41.5236 124.004 39.5273C125.158 37.4987 125.735 35.1975 125.735 32.6237C125.735 30.0913 125.158 27.8099 124.004 25.7795C122.882 23.7838 121.244 22.1192 119.259 20.956C117.25 19.7698 114.969 19.1767 112.414 19.1767C109.898 19.1767 107.627 19.7698 105.599 20.956C103.596 22.1167 101.938 23.7806 100.791 25.7795C99.6145 27.809 99.0267 30.1106 99.0276 32.6844C99.0276 35.216 99.6154 37.4969 100.791 39.5273C101.937 41.5268 103.595 43.1908 105.599 44.3508C107.627 45.537 109.898 46.1301 112.414 46.1301Z" fill="#6561A9"/>
<path d="M133.953 49.144C133.718 49.1545 133.484 49.1171 133.264 49.0343C133.044 48.9515 132.844 48.825 132.675 48.6626C132.354 48.35 132.159 47.9315 132.127 47.4861C132.108 47.253 132.136 47.0185 132.209 46.7962C132.282 46.5738 132.399 46.3681 132.553 46.1909L144.358 31.6557L146.487 34.3095L135.231 48.5993C134.988 48.9625 134.562 49.144 133.953 49.144ZM158.596 49.144C158.109 49.144 157.723 49.0561 157.439 48.8803C157.09 48.6385 156.783 48.3433 156.527 48.0058L146.062 34.258L144.54 33.1066L133.892 19.1781C133.738 19.0009 133.621 18.7951 133.548 18.5728C133.475 18.3505 133.447 18.116 133.466 17.8829C133.502 17.43 133.695 17.0035 134.013 16.676C134.177 16.506 134.376 16.3724 134.596 16.2842C134.817 16.196 135.053 16.1551 135.291 16.1643C135.539 16.1593 135.787 16.2048 136.017 16.298C136.247 16.3912 136.456 16.5302 136.63 16.7064L146.795 30.0914L148.439 31.3576L159.695 46.1909C160.221 46.8336 160.413 47.3762 160.273 47.8185C160.153 48.232 159.882 48.5865 159.513 48.813C159.143 49.0346 158.839 49.144 158.596 49.144ZM147.643 33.3466L145.453 30.6941L156.527 17.2485C156.799 16.9316 157.116 16.6568 157.47 16.4333C157.753 16.2587 158.08 16.1651 158.414 16.1629C158.981 16.1629 159.406 16.3335 159.691 16.6747C159.974 17.0139 160.125 17.4419 160.117 17.8816C160.113 18.3565 159.94 18.8147 159.63 19.1768L147.643 33.3466Z" fill="#6561A9"/>
<path d="M0 0H9.84169C11.6932 0 13.469 0.728864 14.7782 2.02625C16.0874 3.32364 16.823 5.08327 16.823 6.91805V16.693H0V0Z" fill="#6FBB78"/>
<path d="M16.823 16.665H6.10352e-05V33.3356H16.823V16.665Z" fill="#3BB8BC"/>
<path d="M16.7916 16.665H25.1146C26.2308 16.665 27.3361 16.8828 28.3674 17.3061C29.3987 17.7294 30.3357 18.3499 31.125 19.132C31.9143 19.9142 32.5404 20.8427 32.9676 21.8646C33.3947 22.8866 33.6146 23.9819 33.6146 25.088V33.3356H16.7916V16.665Z" fill="#5F93CE"/>
<path d="M6.10352e-05 33.3294H16.823V50H8.57061C7.4453 50.0005 6.33091 49.7813 5.2911 49.355C4.2513 48.9286 3.30646 48.3034 2.51056 47.515C1.71466 46.7267 1.08329 45.7907 0.652533 44.7605C0.221774 43.7304 6.09129e-05 42.6262 6.10352e-05 41.511L6.10352e-05 33.3334V33.3294Z" fill="#5F93CE"/>
<path d="M16.7916 33.3294H33.6146V41.7287C33.6146 43.9224 32.7352 46.0262 31.1698 47.5774C29.6045 49.1286 27.4814 50 25.2677 50H16.7916V33.3294Z" fill="#6561A9"/>
<path d="M25.0964 16.6665H16.7854V33.258L32.0923 21.2236V20.3003C31.3105 19.1783 30.2653 18.2614 29.0467 17.6284C27.828 16.9954 26.4723 16.6653 25.0964 16.6665Z" fill="url(#paint0_linear_668_294)"/>
<defs>
<linearGradient id="paint0_linear_668_294" x1="16.7854" y1="24.9616" x2="32.091" y2="24.9616" gradientUnits="userSpaceOnUse">
<stop stop-color="#537AB7"/>
<stop offset="0.24" stop-color="#5987C3"/>
<stop offset="0.56" stop-color="#5E90CB"/>
<stop offset="1" stop-color="#5F93CE"/>
</linearGradient>
</defs>
</svg>
